<svg xmlns="http://www.w3.org/2000/svg" width="256" height="256" viewBox="0 0 256 256">
<!-- SVG created with Arrow, by QuiverAI (https://quiver.ai) -->
  <path d="m26.49 71.41c14.32-24.74 37.38-44.28 65.23-53.8 7.13-2.55 12.29-4.1 18.31-5.64-16.91 11.87-34.18 24.19-42.4 38.74l-1.85-5.07c-1.5-1-26.46 15.32-39.29 25.77z" fill="#000"/>
  <path d="m152.5 6.7c-22.37 6.61-50.74 20.47-65.9 43.31 4.44-2.57 9.6-3.78 14.75-3.63v9.02c11.39-19.14 27.88-35.34 51.15-48.7z" fill="#000"/>
  <path d="m191.8 7.46c-23.97 7.25-49.54 21.8-73.41 55.75 9.6-10.02 17.63-13.1 31.05-16.28 9.45-14.15 21.44-26.67 42.36-39.47z" fill="#000"/>
  <path d="m233.9 12.01c-22.96 5.03-40.89 14.05-63.75 31.87l1.51-0.05c-16.49 15.24-26.09 30.28-40.52 59.79-15.06 31.59-28.68 45.15-44.57 72.5-12.09 20.94-22.8 43.84-27.86 69.18 7.39-17.82 13.2-24.58 20.38-37.23h14.63v-20.34l14.43-20.84c4.75 14.05 12.14 24.3 19.53 28.77 7.39-10.25 13.4-20.95 18.55-31.85-3.84-5.72-6.17-15.74-6.17-28.6 0-25.84 11.4-49.09 28.88-49.09 8.67 0 12.21 3.17 17.77 7.64l11.99-32.05c-5.7-4.34-9.94-5.7-16.64-6.7 10.13-14.95 26.11-28.1 51.84-43z" fill="#000"/>
  <path d="m237.4 32.08c-29.41 25.84-49.73 55.34-50.33 109.2l8.02-27.5c1.76 6.36 2.11 11.33 2.11 17.89 0 24.09-10.33 47.18-26.42 47.18-5.06 0-7.63-0.9-11.47-2.86 7.88-18.74 12.32-31.99 13.13-53.94l-0.71-0.2c-11.99 32.96-25.52 61.26-44.08 84.51l0.81-6.36-0.61-1.56c-11.99 19.94-23.98 34.09-40.57 45.34 22.16-9.75 36.39-19.5 55.24-39.03 7.09 2.97 10.62 3.98 18.55 5.53 27.06-24.54 46.72-46.29 64-80.73-14.97 37.61-37.34 68.49-74.2 88.83-12.79 15.35-19.3 23.77-31.29 31.6 22.78-7.73 41.09-19.85 60.13-39.9 34.17-7.32 57.13-32.78 57.13-78 0-24.85-7.93-45.99-22.76-60.94 6.99-16.06 13.5-27.84 23.32-39.09z" fill="#000"/>
  <path d="m237.2 186.8c-14.03 17.02-26.45 27.28-43.57 36l0.2-7.82c-10.74 12.8-19.07 21.52-32.3 29.44 29.41-7.52 60.73-26.68 75.67-57.62z" fill="#000"/>
  <path d="m18.06 86.58 13.93 26.64c12.83-2.1 21.26-5.86 31.59-12.82v56.68c6.51-21.95 17.24-43 30.15-65.64v-36.43c-12.91 1-22.64 12.25-37.47 26.4l17.18-24.49h-10.12c-12.29 11.85-24.93 20.87-45.26 29.66z" fill="#000"/>
  <path d="m25.58 213.4c4.55-26.97 14.58-50.71 30.02-82.76l0.61 0.4v5.17c-14.44 26.43-25.07 49.97-30.63 77.19z" fill="#000"/>
  <path d="m56.01 151v56.09h9.83c10.02-21.95 17.95-37.1 27.98-49.54v-50.87l-0.8 0.1c-11.39 18.33-19.97 33.78-29.7 56.32l-0.81-5.95-0.8 1.51-5.7-7.66z" fill="#000"/>
</svg>